<svg width="220" height="85" viewBox="0 0 220 85" fill="none" xmlns="http://www.w3.org/2000/svg">
<path d="M0.408381 68.6818V55.1193L34.4141 1.54545H46.1072V20.3182H39.1868L17.7493 54.2443V54.8807H66.0732V68.6818H0.408381ZM39.505 83V64.5455L39.8232 58.5398V1.54545H55.9709V83H39.505ZM109.485 84.7898C102.644 84.7633 96.7578 83.0795 91.826 79.7386C86.9207 76.3977 83.1423 71.5587 80.4908 65.2216C77.8658 58.8845 76.5665 51.2614 76.593 42.3523C76.593 33.4697 77.9055 25.8996 80.5305 19.642C83.1821 13.3845 86.9605 8.625 91.8658 5.36364C96.7976 2.07576 102.671 0.431815 109.485 0.431815C116.299 0.431815 122.159 2.07576 127.065 5.36364C131.996 8.65151 135.788 13.4242 138.44 19.6818C141.091 25.9129 142.404 33.4697 142.377 42.3523C142.377 51.2879 141.051 58.9242 138.4 65.2614C135.775 71.5985 132.01 76.4375 127.104 79.7784C122.199 83.1193 116.326 84.7898 109.485 84.7898ZM109.485 70.5114C114.152 70.5114 117.877 68.1648 120.661 63.4716C123.445 58.7784 124.824 51.7386 124.798 42.3523C124.798 36.1742 124.161 31.0303 122.888 26.9205C121.642 22.8106 119.866 19.7216 117.559 17.6534C115.279 15.5852 112.587 14.5511 109.485 14.5511C104.845 14.5511 101.133 16.8712 98.3487 21.5114C95.5646 26.1515 94.1593 33.0985 94.1328 42.3523C94.1328 48.6098 94.7559 53.8333 96.0021 58.0227C97.2749 62.1856 99.0646 65.3144 101.371 67.4091C103.678 69.4773 106.383 70.5114 109.485 70.5114ZM153.424 68.6818V55.1193L187.43 1.54545H199.123V20.3182H192.202L170.765 54.2443V54.8807H219.089V68.6818H153.424ZM192.521 83V64.5455L192.839 58.5398V1.54545H208.987V83H192.521Z" fill="#7B98B3"/>
</svg>
