<svg width="24" height="24" viewBox="0 0 24 24" fill="none" xmlns="http://www.w3.org/2000/svg">
<circle cx="12" cy="12" r="12" fill="#85BDD4" fill-opacity="0.4"/>
<mask id="mask0_657_5744" style="mask-type:alpha" maskUnits="userSpaceOnUse" x="3" y="3" width="18" height="18">
<rect x="3" y="3" width="18" height="18" fill="#D9D9D9"/>
</mask>
<g mask="url(#mask0_657_5744)">
<path d="M12 12C11.175 12 10.4688 11.7063 9.88125 11.1188C9.29375 10.5312 9 9.825 9 9C9 8.175 9.29375 7.46875 9.88125 6.88125C10.4688 6.29375 11.175 6 12 6C12.825 6 13.5312 6.29375 14.1187 6.88125C14.7063 7.46875 15 8.175 15 9C15 9.825 14.7063 10.5312 14.1187 11.1188C13.5312 11.7063 12.825 12 12 12ZM6 18V15.9C6 15.475 6.10937 15.0844 6.32812 14.7281C6.54688 14.3719 6.8375 14.1 7.2 13.9125C7.975 13.525 8.7625 13.2344 9.5625 13.0406C10.3625 12.8469 11.175 12.75 12 12.75C12.825 12.75 13.6375 12.8469 14.4375 13.0406C15.2375 13.2344 16.025 13.525 16.8 13.9125C17.1625 14.1 17.4531 14.3719 17.6719 14.7281C17.8906 15.0844 18 15.475 18 15.9V18H6Z" fill="#85BDD4"/>
</g>
</svg>
